<?xml version="1.0" encoding="UTF-8"?>
<!-- Generator: Adobe Illustrator 27.1.0, SVG Export Plug-In . SVG Version: 6.00 Build 0)  -->
<svg version="1.1" id="Calque_1" xmlns="http://www.w3.org/2000/svg" xmlns:xlink="http://www.w3.org/1999/xlink" x="0px" y="0px" viewBox="0 0 960 385" style="enable-background:new 0 0 960 385;" xml:space="preserve">
<style type="text/css">
	.st0{fill:#104274;}
	.st1{fill:#FFFFFF;}
</style>
<rect x="0.48" y="-0.45" class="st0" width="959.52" height="385.86"/>
<g>
	<path class="st1" d="M173.25,236.25c-51.1,3.58-89.07-31.88-92.5-81.1c-3.41-48.5,30.71-88.28,79.95-91.72   c40.74-2.86,63.31,18.53,63.31,18.53l-13.04,23.63c0,0-20.31-16.33-46.91-14.47c-35.33,2.47-54.23,30.29-52.07,61.37   c2.26,31.79,25.66,58.33,60.49,55.89c28.98-2.02,47.04-24.59,47.04-24.59l17.55,20.78C237.08,204.57,215.9,233.28,173.25,236.25"/>
	<path class="st1" d="M325.76,222.75l-0.94-13.66c-0.35-4.71-0.15-8.51-0.15-8.51l-0.46,0.02c-5.01,12.9-19.43,26.45-39.95,27.9   c-25.68,1.78-42.6-10.04-44.88-42.77l-5.41-77.26l29.92-2.1l4.96,71.13c1.02,14.59,5.47,24.23,20.34,23.19   c21.65-1.52,32.33-21.44,30.84-42.86l-3.84-55.11l29.88-2.08l8.42,120.11L325.76,222.75z"/>
	<path class="st1" d="M404.81,218.41c-16.49,1.14-37.29-1.65-39.67-36.05l-9.09-129.74l29.69-2.08l8.75,125.29   c0.91,13.18,5.62,16.18,13.41,15.63c2.34-0.17,4.45-0.56,4.45-0.56l1.82,26.15C414.18,217.04,409.76,218.05,404.81,218.41"/>
	<path class="st1" d="M576.26,205.23l-0.95-13.65c-0.33-4.71-0.13-8.52-0.13-8.52l-0.46,0.03c-5.02,12.91-19.45,26.45-39.94,27.88   c-25.67,1.8-42.6-10.04-44.91-42.77l-3.74-53.46l-37.12,2.59l3.39,48.53c1.4,19.77,17.13,21.51,25.37,20.95   c3.29-0.23,5.39-0.86,5.39-0.86l1.8,26.13c0,0-3.47,0.96-9.11,1.35c-16.74,1.17-50.29-1.45-53.11-41.72l-3.65-52.29l-15.54,1.08   l-1.68-23.79l16.24-1.13l-2.27-32.74l29.21-2.04l2.28,32.74l67.06-4.69l4.96,71.11c1.03,14.6,5.47,24.23,20.32,23.19   c21.66-1.51,32.35-21.44,30.84-42.86l-3.85-55.12l29.92-2.08l8.41,120.11L576.26,205.23z"/>
	<path class="st1" d="M647.55,152.45l3.33,47.57l-29.92,2.1l-8.41-120.11l28.75-2.02l1.43,20.74c0.34,4.47,0.14,8.51,0.14,8.51   l0.48-0.04c4.2-17.57,17.62-32.23,35.99-33.51c2.82-0.21,5.46,0.09,5.46,0.09l2.05,29.45c0,0-3.1-0.27-7.09,0.02   c-12.73,0.9-26.57,9.2-31,27.48C647.3,138.72,647.05,145.37,647.55,152.45"/>
	<path class="st1" d="M877.76,148.58c-1.27,1.38-2.77,2.49-4,3.18v0.01c-1.01,0.53-1.98,0.87-2.99,0.93c-0.57,0.04-1.14,0-1.69-0.18   c-1.46-0.47-2.4-1.88-2.42-1.89c-4.35-6.05-9.28-8.32-12.01-9.17c0.07,0.8,0.16,1.77,0.23,2.92c0.68,9.67,0.76,30.91-9.31,49.71   c-8.34,16.49-21.72,29.45-38.55,38.36c-11.36,6.14-23.22,9.12-34.79,9.92h-0.01c-23.19,1.63-45.33-5.37-60.98-12.87   c-12.58-5.93-28.19-19.35-37.86-30.04c1.93,6.02,6.43,15.44,15.86,21.62c6.61,4.35,11.94,6.16,14.13,6.79   c0.74,0.19,1.85,0.43,1.85,0.43l0.36,0.72c0,0.08,1.93,3.76,2.18,6.82c0.02,0.75,0.02,1.53-0.38,2.34   c-0.38,0.85-1.44,1.52-2.43,1.54l-0.3,0.02c-2-0.06-5.67-1.02-10.46-3.09c-4.73-2.06-10.42-5.25-15.76-9.85   c-13.86-11.86-14.85-27.23-15.2-31.38l-0.02-0.15c-0.12-2.03,0.61-4.39,1.48-6.63c0.94-2.24,1.87-4.12,2.94-5.2   c0.39-0.44,1.03-0.83,1.76-0.87c1.48-0.02,2.22,0.77,2.99,1.46c0.79,0.72,1.61,1.65,2.58,2.69c6.59,6.87,20.09,21.73,39.95,31.95   c16.78,8.65,34.99,12.08,52.48,10.86c1.79-0.14,3.6-0.32,5.4-0.53c19.47-2.47,34.48-10.58,48.16-25.86   c16.89-18.84,17.93-42.58,17.06-54.78c-0.17-2.47-0.43-4.46-0.63-5.83l-0.09-0.6c-3.59,0.42-5.71,0.81-5.71,0.81   c-0.6,0.12-1.11,0.2-1.61,0.24c-0.93,0.07-1.97-0.12-2.71-0.72c-0.64-0.47-1.45-1.5-1.53-2.98c-0.05-0.53,0-1.09,0.12-1.65   c0.26-1.16,0.6-2.37,1.29-3.47c0.69-1.08,1.81-2.04,3.29-2.39c6.41-1.59,11.24-2.44,15.56-2.74c3.83-0.26,7.24-0.11,10.95,0.3   c10.61,1.2,18.91,6.19,22.55,12.3c0.32,0.57,0.51,1.18,0.54,1.79C880.14,145.57,878.99,147.2,877.76,148.58"/>
	<path class="st1" d="M736.69,173.42c-12.24,0.86-18.67-6.26-19.23-14.27c-1.16-16.72,23.41-20.56,38.72-21.63l5.19-0.36l0.2,2.82   C762.59,154.58,752.46,172.32,736.69,173.42 M789.41,114.85c-2.14-30.38-21.73-46.52-53.27-44.32   c-28.51,1.98-46.07,18.13-46.07,18.13l12.8,20.64c0,0,14.97-12.64,32.17-13.85c13.18-0.93,23.46,3.8,24.56,19.59l0.12,1.64   l-4.03,0.28c-19.54,1.37-70.93,7.55-68.26,45.69c1.68,24.03,21.93,36.1,43.37,34.61c27.31-1.9,35.26-23.76,35-23.75l0.48-0.03   c0,0-0.22,3.8,0.12,8.51l0.7,9.91l27.56-1.93L789.41,114.85z"/>
	<polygon class="st1" points="58.43,328.73 70.14,328.73 70.14,334.07 51.46,334.07 51.46,299.19 58.43,299.19  "/>
	<path class="st1" d="M91.93,307.98c1.64,1.09,2.81,2.55,3.5,4.39v-5.68h6.92v27.38h-6.92v-5.74c-0.69,1.85-1.86,3.32-3.5,4.43   c-1.65,1.11-3.63,1.66-5.93,1.66c-2.31,0-4.38-0.56-6.23-1.68c-1.84-1.12-3.28-2.74-4.32-4.86c-1.04-2.13-1.56-4.62-1.56-7.49   c0-2.87,0.52-5.37,1.56-7.49c1.04-2.12,2.48-3.75,4.32-4.86c1.85-1.12,3.92-1.68,6.23-1.68C88.3,306.35,90.28,306.89,91.93,307.98    M82.94,314.55c-1.32,1.42-1.98,3.36-1.98,5.84c0,2.47,0.66,4.4,1.98,5.8c1.32,1.4,3.07,2.1,5.24,2.1c2.11,0,3.84-0.71,5.22-2.14   c1.37-1.43,2.05-3.35,2.05-5.75c0-2.44-0.68-4.38-2.05-5.81c-1.37-1.43-3.11-2.14-5.22-2.14C86,312.43,84.25,313.14,82.94,314.55"/>
	<path class="st1" d="M142.55,309.22c2.35,1.91,3.83,4.51,4.42,7.81h-7.36c-0.3-1.45-0.97-2.6-2.02-3.43   c-1.06-0.84-2.39-1.26-4.01-1.26c-1.84,0-3.39,0.68-4.62,2.05c-1.24,1.37-1.85,3.37-1.85,6.01c0,2.63,0.62,4.64,1.85,6   c1.23,1.37,2.78,2.05,4.62,2.05c1.61,0,2.95-0.42,4.01-1.26c1.05-0.84,1.72-1.98,2.02-3.44h7.36c-0.59,3.29-2.06,5.9-4.42,7.81   c-2.36,1.91-5.3,2.87-8.82,2.87c-2.67,0-5.04-0.57-7.11-1.71c-2.08-1.14-3.69-2.76-4.85-4.87c-1.15-2.1-1.72-4.59-1.72-7.45   c0-2.87,0.57-5.36,1.72-7.49c1.16-2.12,2.77-3.75,4.85-4.86c2.08-1.12,4.44-1.68,7.11-1.68   C137.25,306.35,140.2,307.31,142.55,309.22"/>
	<path class="st1" d="M179.09,306.7v27.37h-6.97v-5.53c-0.73,1.85-1.92,3.29-3.58,4.32c-1.66,1.04-3.58,1.56-5.75,1.56   c-3.16,0-5.68-1.03-7.56-3.11c-1.88-2.08-2.82-4.98-2.82-8.7V306.7h6.92v15.12c0,2.18,0.56,3.86,1.68,5.06   c1.12,1.21,2.63,1.8,4.55,1.8c2.01,0,3.6-0.64,4.79-1.92c1.19-1.29,1.78-3.13,1.78-5.54V306.7H179.09z"/>
	<rect x="186.41" y="297.5" class="st1" width="6.97" height="36.57"/>
	<path class="st1" d="M215.31,328.09v5.98h-3.66c-3.06,0-5.41-0.74-7.04-2.23c-1.63-1.48-2.44-3.95-2.44-7.41v-11.86h-3.81v-5.88   h3.81v-6.77h6.97v6.77h6.13v5.88h-6.13v11.95c0,1.32,0.26,2.24,0.79,2.77c0.53,0.53,1.42,0.79,2.66,0.79H215.31z"/>
	<path class="st1" d="M247.47,306.7v27.37h-6.97v-5.53c-0.72,1.85-1.92,3.29-3.58,4.32c-1.66,1.04-3.58,1.56-5.75,1.56   c-3.16,0-5.68-1.03-7.56-3.11c-1.88-2.08-2.82-4.98-2.82-8.7V306.7h6.92v15.12c0,2.18,0.56,3.86,1.68,5.06   c1.12,1.21,2.63,1.8,4.55,1.8c2.01,0,3.6-0.64,4.79-1.92c1.19-1.29,1.78-3.13,1.78-5.54V306.7H247.47z"/>
	<path class="st1" d="M265.8,307.81c1.68-1.01,3.55-1.51,5.63-1.51v7.46h-2.03c-5.11,0-7.66,2.37-7.66,7.12v13.19h-6.97V306.7h6.97   v5.24C262.78,310.19,264.12,308.82,265.8,307.81"/>
	<path class="st1" d="M301.78,321.72h-20.06c0.1,2.44,0.75,4.23,1.97,5.38c1.22,1.16,2.73,1.73,4.55,1.73c1.61,0,2.95-0.4,4.02-1.19   c1.07-0.79,1.76-1.86,2.05-3.21h7.36c-0.36,1.91-1.14,3.62-2.32,5.14c-1.18,1.51-2.71,2.7-4.57,3.55c-1.86,0.86-3.93,1.29-6.2,1.29   c-2.67,0-5.04-0.57-7.11-1.7c-2.08-1.14-3.69-2.76-4.85-4.87c-1.15-2.11-1.73-4.59-1.73-7.46c0-2.87,0.58-5.36,1.73-7.49   c1.16-2.13,2.77-3.75,4.85-4.86c2.07-1.13,4.44-1.68,7.11-1.68c2.7,0,5.06,0.56,7.09,1.68c2.03,1.12,3.59,2.66,4.69,4.62   c1.11,1.96,1.66,4.19,1.66,6.69C302.02,320.04,301.94,320.83,301.78,321.72 M293.25,313.56c-1.27-1.16-2.82-1.73-4.67-1.73   c-1.88,0-3.46,0.57-4.75,1.73c-1.28,1.16-1.99,2.85-2.12,5.09h13.29C295.11,316.41,294.52,314.72,293.25,313.56"/>
	<path class="st1" d="M336.36,307.98c1.64,1.09,2.81,2.55,3.5,4.39v-5.68h6.92v27.38h-6.92v-5.74c-0.69,1.85-1.86,3.32-3.5,4.43   c-1.65,1.11-3.63,1.66-5.93,1.66c-2.31,0-4.38-0.56-6.23-1.68c-1.84-1.12-3.28-2.74-4.32-4.86c-1.04-2.13-1.56-4.62-1.56-7.49   c0-2.87,0.52-5.37,1.56-7.49c1.04-2.12,2.48-3.75,4.32-4.86c1.85-1.12,3.93-1.68,6.23-1.68   C332.73,306.35,334.71,306.89,336.36,307.98 M327.37,314.55c-1.32,1.42-1.98,3.36-1.98,5.84c0,2.47,0.66,4.4,1.98,5.8   c1.32,1.4,3.07,2.1,5.24,2.1c2.11,0,3.85-0.71,5.22-2.14c1.37-1.43,2.05-3.35,2.05-5.75c0-2.44-0.68-4.38-2.05-5.81   c-1.37-1.43-3.11-2.14-5.22-2.14C330.44,312.43,328.69,313.14,327.37,314.55"/>
	<polygon class="st1" points="366.01,327.1 372.93,306.7 380.34,306.7 370.21,334.07 361.71,334.07 351.58,306.7 359.04,306.7  "/>
	<path class="st1" d="M410.68,321.72h-20.06c0.1,2.44,0.76,4.23,1.98,5.38c1.22,1.16,2.73,1.73,4.55,1.73c1.61,0,2.95-0.4,4.02-1.19   c1.07-0.79,1.76-1.86,2.05-3.21h7.36c-0.36,1.91-1.14,3.62-2.32,5.14c-1.19,1.51-2.71,2.7-4.57,3.55c-1.86,0.86-3.93,1.29-6.2,1.29   c-2.67,0-5.04-0.57-7.12-1.7c-2.07-1.14-3.68-2.76-4.84-4.87c-1.16-2.11-1.73-4.59-1.73-7.46c0-2.87,0.57-5.36,1.73-7.49   c1.16-2.13,2.77-3.75,4.84-4.86c2.08-1.13,4.45-1.68,7.12-1.68c2.7,0,5.06,0.56,7.09,1.68c2.02,1.12,3.58,2.66,4.69,4.62   c1.11,1.96,1.66,4.19,1.66,6.69C410.92,320.04,410.84,320.83,410.68,321.72 M402.15,313.56c-1.27-1.16-2.82-1.73-4.67-1.73   c-1.88,0-3.46,0.57-4.75,1.73c-1.29,1.16-1.99,2.85-2.13,5.09h13.3C404.01,316.41,403.42,314.72,402.15,313.56"/>
	<path class="st1" d="M437.98,309.22c2.35,1.91,3.83,4.51,4.42,7.81h-7.36c-0.3-1.45-0.97-2.6-2.02-3.43   c-1.06-0.84-2.39-1.26-4.01-1.26c-1.84,0-3.38,0.68-4.62,2.05c-1.24,1.37-1.85,3.37-1.85,6.01c0,2.63,0.62,4.64,1.85,6   c1.24,1.37,2.78,2.05,4.62,2.05c1.61,0,2.95-0.42,4.01-1.26c1.05-0.84,1.72-1.98,2.02-3.44h7.36c-0.59,3.29-2.06,5.9-4.42,7.81   c-2.36,1.91-5.3,2.87-8.82,2.87c-2.67,0-5.04-0.57-7.11-1.71c-2.08-1.14-3.69-2.76-4.84-4.87c-1.16-2.1-1.73-4.59-1.73-7.45   c0-2.87,0.57-5.36,1.73-7.49c1.15-2.12,2.76-3.75,4.84-4.86c2.08-1.12,4.44-1.68,7.11-1.68   C432.68,306.35,435.62,307.31,437.98,309.22"/>
	<path class="st1" d="M486.27,306.7v27.37h-6.97v-5.53c-0.73,1.85-1.92,3.29-3.58,4.32c-1.66,1.04-3.58,1.56-5.75,1.56   c-3.16,0-5.68-1.03-7.56-3.11c-1.88-2.08-2.82-4.98-2.82-8.7V306.7h6.92v15.12c0,2.18,0.56,3.86,1.68,5.06   c1.12,1.21,2.63,1.8,4.54,1.8c2.01,0,3.61-0.64,4.8-1.92c1.19-1.29,1.78-3.13,1.78-5.54V306.7H486.27z"/>
	<path class="st1" d="M517.45,309.41c1.88,2.08,2.82,4.99,2.82,8.75v15.91h-6.92v-15.12c0-2.17-0.56-3.86-1.68-5.06   c-1.12-1.21-2.65-1.81-4.6-1.81c-1.98,0-3.55,0.64-4.74,1.93c-1.19,1.29-1.78,3.13-1.78,5.53v14.53h-6.97V306.7h6.97v5.48   c0.72-1.84,1.92-3.29,3.58-4.33c1.66-1.04,3.58-1.55,5.75-1.55C513.05,306.3,515.57,307.34,517.45,309.41"/>
	<path class="st1" d="M555.79,307.98c1.64,1.09,2.81,2.55,3.5,4.39v-5.68h6.92v27.48c0,2.53-0.51,4.82-1.51,6.84   c-1.01,2.03-2.5,3.62-4.5,4.77c-1.99,1.16-4.41,1.73-7.24,1.73c-3.95,0-7.15-0.94-9.58-2.81c-2.44-1.88-3.92-4.43-4.45-7.66h6.87   c0.4,1.38,1.16,2.47,2.3,3.24c1.14,0.77,2.59,1.16,4.37,1.16c2.04,0,3.69-0.6,4.95-1.81c1.25-1.2,1.87-3.02,1.87-5.46v-5.83   c-0.69,1.85-1.86,3.32-3.5,4.43c-1.65,1.11-3.63,1.66-5.93,1.66c-2.31,0-4.38-0.56-6.23-1.68c-1.84-1.12-3.28-2.74-4.32-4.86   c-1.04-2.13-1.56-4.62-1.56-7.49c0-2.87,0.52-5.37,1.56-7.49c1.04-2.12,2.48-3.75,4.32-4.86c1.85-1.12,3.92-1.68,6.23-1.68   C552.17,306.35,554.14,306.89,555.79,307.98 M546.8,314.55c-1.32,1.42-1.98,3.36-1.98,5.84c0,2.47,0.66,4.4,1.98,5.8   c1.32,1.4,3.07,2.1,5.24,2.1c2.11,0,3.84-0.71,5.22-2.14c1.37-1.43,2.05-3.35,2.05-5.75c0-2.44-0.68-4.38-2.05-5.81   c-1.37-1.43-3.11-2.14-5.22-2.14C549.87,312.43,548.12,313.14,546.8,314.55"/>
	<path class="st1" d="M584.55,307.81c1.68-1.01,3.56-1.51,5.63-1.51v7.46h-2.03c-5.11,0-7.66,2.37-7.66,7.12v13.19h-6.97V306.7h6.97   v5.24C581.52,310.19,582.87,308.82,584.55,307.81"/>
	<path class="st1" d="M611.68,307.98c1.64,1.09,2.81,2.55,3.5,4.39v-5.68h6.92v27.38h-6.92v-5.74c-0.69,1.85-1.86,3.32-3.5,4.43   c-1.65,1.11-3.63,1.66-5.93,1.66c-2.31,0-4.38-0.56-6.23-1.68c-1.84-1.12-3.28-2.74-4.32-4.86c-1.04-2.13-1.56-4.62-1.56-7.49   c0-2.87,0.52-5.37,1.56-7.49c1.04-2.12,2.48-3.75,4.32-4.86c1.85-1.12,3.92-1.68,6.23-1.68   C608.05,306.35,610.03,306.89,611.68,307.98 M602.68,314.55c-1.32,1.42-1.98,3.36-1.98,5.84c0,2.47,0.66,4.4,1.98,5.8   c1.32,1.4,3.07,2.1,5.24,2.1c2.11,0,3.84-0.71,5.22-2.14c1.37-1.43,2.05-3.35,2.05-5.75c0-2.44-0.68-4.38-2.05-5.81   c-1.37-1.43-3.11-2.14-5.22-2.14C605.75,312.43,604,313.14,602.68,314.55"/>
	<path class="st1" d="M653.28,309.41c1.88,2.08,2.82,4.99,2.82,8.75v15.91h-6.92v-15.12c0-2.17-0.56-3.86-1.68-5.06   c-1.12-1.21-2.65-1.81-4.6-1.81c-1.98,0-3.55,0.64-4.74,1.93c-1.19,1.29-1.78,3.13-1.78,5.53v14.53h-6.97V306.7h6.97v5.48   c0.72-1.84,1.92-3.29,3.58-4.33c1.66-1.04,3.58-1.55,5.75-1.55C648.89,306.3,651.4,307.34,653.28,309.41"/>
	<path class="st1" d="M679.84,307.98c1.63,1.09,2.81,2.55,3.53,4.39V297.5h6.92v36.57h-6.92v-5.74c-0.72,1.85-1.9,3.32-3.53,4.43   c-1.63,1.11-3.6,1.66-5.9,1.66c-2.31,0-4.38-0.56-6.23-1.68c-1.84-1.12-3.28-2.74-4.32-4.86c-1.04-2.13-1.56-4.62-1.56-7.49   c0-2.87,0.52-5.37,1.56-7.49c1.04-2.12,2.48-3.75,4.32-4.86c1.85-1.12,3.92-1.68,6.23-1.68   C676.24,306.35,678.21,306.89,679.84,307.98 M670.87,314.55c-1.32,1.42-1.98,3.36-1.98,5.84c0,2.47,0.66,4.4,1.98,5.8   c1.32,1.4,3.07,2.1,5.24,2.1c2.11,0,3.84-0.71,5.22-2.14c1.37-1.43,2.05-3.35,2.05-5.75c0-2.44-0.68-4.38-2.05-5.81   c-1.37-1.43-3.11-2.14-5.22-2.14C673.94,312.43,672.19,313.14,670.87,314.55"/>
	<path class="st1" d="M730.61,327.05h-13.98l-2.47,7.02h-7.36l12.84-34.48h7.96l12.8,34.48h-7.37L730.61,327.05z M728.73,321.77   l-5.14-14.72l-5.14,14.72H728.73z"/>
	<path class="st1" d="M771.42,325.93H755.2l-2.87,8.14h-8.54l14.91-40.01h9.23l14.84,40.01h-8.54L771.42,325.93z M769.24,319.8   l-5.96-17.08l-5.96,17.08H769.24z"/>
	<path class="st1" d="M818.57,324.65h-18.77l-3.31,9.42h-9.88l17.25-46.3h10.67l17.18,46.3h-9.88L818.57,324.65z M816.04,317.55   l-6.9-19.76l-6.9,19.76H816.04z"/>
	<polygon class="st1" points="881.75,283.08 881.75,334.07 871.5,334.07 871.5,311.9 849.69,311.9 849.69,334.07 839.5,334.07    839.5,283.08 849.69,283.08 849.69,303.74 871.5,303.74 871.5,283.08  "/>
	<path class="st1" d="M909.09,277.03l-1.39,38.81h-9.24l-1.39-38.81H909.09z M909.01,334.07h-11.79v-11.4h11.79V334.07z"/>
</g>
</svg>